%TF.GenerationSoftware,KiCad,Pcbnew,(6.0.10)*%
%TF.CreationDate,2023-02-17T12:42:37-08:00*%
%TF.ProjectId,exercise2,65786572-6369-4736-9532-2e6b69636164,rev?*%
%TF.SameCoordinates,Original*%
%TF.FileFunction,Copper,L1,Top*%
%TF.FilePolarity,Positive*%
%FSLAX46Y46*%
G04 Gerber Fmt 4.6, Leading zero omitted, Abs format (unit mm)*
G04 Created by KiCad (PCBNEW (6.0.10)) date 2023-02-17 12:42:37*
%MOMM*%
%LPD*%
G01*
G04 APERTURE LIST*
G04 Aperture macros list*
%AMRoundRect*
0 Rectangle with rounded corners*
0 $1 Rounding radius*
0 $2 $3 $4 $5 $6 $7 $8 $9 X,Y pos of 4 corners*
0 Add a 4 corners polygon primitive as box body*
4,1,4,$2,$3,$4,$5,$6,$7,$8,$9,$2,$3,0*
0 Add four circle primitives for the rounded corners*
1,1,$1+$1,$2,$3*
1,1,$1+$1,$4,$5*
1,1,$1+$1,$6,$7*
1,1,$1+$1,$8,$9*
0 Add four rect primitives between the rounded corners*
20,1,$1+$1,$2,$3,$4,$5,0*
20,1,$1+$1,$4,$5,$6,$7,0*
20,1,$1+$1,$6,$7,$8,$9,0*
20,1,$1+$1,$8,$9,$2,$3,0*%
G04 Aperture macros list end*
%TA.AperFunction,NonConductor*%
%ADD10C,0.200000*%
%TD*%
%TA.AperFunction,SMDPad,CuDef*%
%ADD11RoundRect,0.250001X-0.462499X-0.624999X0.462499X-0.624999X0.462499X0.624999X-0.462499X0.624999X0*%
%TD*%
%TA.AperFunction,SMDPad,CuDef*%
%ADD12RoundRect,0.150000X-0.825000X-0.150000X0.825000X-0.150000X0.825000X0.150000X-0.825000X0.150000X0*%
%TD*%
%TA.AperFunction,SMDPad,CuDef*%
%ADD13R,2.290000X3.000000*%
%TD*%
%TA.AperFunction,ComponentPad*%
%ADD14R,3.000000X3.000000*%
%TD*%
%TA.AperFunction,ComponentPad*%
%ADD15C,3.000000*%
%TD*%
%TA.AperFunction,SMDPad,CuDef*%
%ADD16RoundRect,0.250000X-0.350000X-0.450000X0.350000X-0.450000X0.350000X0.450000X-0.350000X0.450000X0*%
%TD*%
%TA.AperFunction,SMDPad,CuDef*%
%ADD17RoundRect,0.250000X-0.537500X-0.425000X0.537500X-0.425000X0.537500X0.425000X-0.537500X0.425000X0*%
%TD*%
%TA.AperFunction,SMDPad,CuDef*%
%ADD18RoundRect,0.250000X-0.337500X-0.475000X0.337500X-0.475000X0.337500X0.475000X-0.337500X0.475000X0*%
%TD*%
%TA.AperFunction,ViaPad*%
%ADD19C,0.800000*%
%TD*%
%TA.AperFunction,Conductor*%
%ADD20C,0.250000*%
%TD*%
G04 APERTURE END LIST*
D10*
X175260000Y-109220000D02*
X121920000Y-109220000D01*
X121920000Y-109220000D02*
X121920000Y-66040000D01*
X121920000Y-66040000D02*
X175260000Y-66040000D01*
X175260000Y-66040000D02*
X175260000Y-109220000D01*
D11*
%TO.P,D1,1,K*%
%TO.N,Net-(D1-Pad1)*%
X164665000Y-73660000D03*
%TO.P,D1,2,A*%
%TO.N,+9V*%
X167640000Y-73660000D03*
%TD*%
D12*
%TO.P,U1,1,GND*%
%TO.N,GND*%
X146235000Y-87155000D03*
%TO.P,U1,2,TR*%
%TO.N,/pin_2*%
X146235000Y-88425000D03*
%TO.P,U1,3,Q*%
%TO.N,/pin_3*%
X146235000Y-89695000D03*
%TO.P,U1,4,R*%
%TO.N,+9V*%
X146235000Y-90965000D03*
%TO.P,U1,5,CV*%
%TO.N,Net-(C2-Pad1)*%
X151185000Y-90965000D03*
%TO.P,U1,6,THR*%
%TO.N,/pin_2*%
X151185000Y-89695000D03*
%TO.P,U1,7,DIS*%
%TO.N,/pin_7*%
X151185000Y-88425000D03*
%TO.P,U1,8,VCC*%
%TO.N,+9V*%
X151185000Y-87155000D03*
D13*
%TO.P,U1,9*%
%TO.N,N/C*%
X148710000Y-89060000D03*
%TD*%
D14*
%TO.P,J1,1,Pin_1*%
%TO.N,unconnected-(J1-Pad1)*%
X147320000Y-81280000D03*
D15*
%TO.P,J1,2,Pin_2*%
%TO.N,unconnected-(J1-Pad2)*%
X152400000Y-81280000D03*
%TD*%
D16*
%TO.P,R4,1*%
%TO.N,/pin_3*%
X166085320Y-94495000D03*
%TO.P,R4,2*%
%TO.N,Net-(D2-Pad2)*%
X168085320Y-94495000D03*
%TD*%
D11*
%TO.P,D2,1,K*%
%TO.N,GND*%
X166012500Y-105880000D03*
%TO.P,D2,2,A*%
%TO.N,Net-(D2-Pad2)*%
X168987500Y-105880000D03*
%TD*%
D17*
%TO.P,C1,1*%
%TO.N,/pin_2*%
X130390000Y-104805000D03*
%TO.P,C1,2*%
%TO.N,GND*%
X133265000Y-104805000D03*
%TD*%
D16*
%TO.P,R3,1*%
%TO.N,Net-(D1-Pad1)*%
X164100000Y-88385000D03*
%TO.P,R3,2*%
%TO.N,/pin_3*%
X166100000Y-88385000D03*
%TD*%
D18*
%TO.P,C2,1*%
%TO.N,Net-(C2-Pad1)*%
X140923752Y-97880000D03*
%TO.P,C2,2*%
%TO.N,GND*%
X142998752Y-97880000D03*
%TD*%
D16*
%TO.P,R1,1*%
%TO.N,+9V*%
X126949448Y-74305000D03*
%TO.P,R1,2*%
%TO.N,/pin_7*%
X128949448Y-74305000D03*
%TD*%
%TO.P,R2,1*%
%TO.N,/pin_7*%
X128540000Y-88900000D03*
%TO.P,R2,2*%
%TO.N,/pin_2*%
X130540000Y-88900000D03*
%TD*%
D19*
%TO.N,/pin_7*%
X149490000Y-86730000D03*
%TD*%
D20*
%TO.N,/pin_2*%
X130390000Y-89050000D02*
X130390000Y-104805000D01*
X147535000Y-86808249D02*
X147535000Y-87235000D01*
X132910000Y-86530000D02*
X147256751Y-86530000D01*
X130540000Y-88900000D02*
X132910000Y-86530000D01*
X130540000Y-88900000D02*
X130390000Y-89050000D01*
X147256751Y-86530000D02*
X147535000Y-86808249D01*
%TO.N,GND*%
X150998752Y-105880000D02*
X166012500Y-105880000D01*
X136073752Y-104805000D02*
X133265000Y-104805000D01*
X145858249Y-87155000D02*
X146235000Y-87155000D01*
X142998752Y-97880000D02*
X142998752Y-90014497D01*
X142998752Y-97880000D02*
X150998752Y-105880000D01*
X142998752Y-90014497D02*
X145858249Y-87155000D01*
X142998752Y-97880000D02*
X136073752Y-104805000D01*
%TO.N,Net-(C2-Pad1)*%
X151185000Y-90965000D02*
X151185000Y-93927792D01*
X151185000Y-93927792D02*
X146782792Y-98330000D01*
X146782792Y-98330000D02*
X144085148Y-98330000D01*
%TO.N,Net-(D1-Pad1)*%
X164665000Y-73660000D02*
X164665000Y-87820000D01*
X164665000Y-87820000D02*
X164100000Y-88385000D01*
%TO.N,+9V*%
X147320000Y-79455000D02*
X154315000Y-72460000D01*
X166440000Y-72460000D02*
X163964328Y-72460000D01*
X151185000Y-85239328D02*
X151185000Y-87155000D01*
X126949448Y-74305000D02*
X127974448Y-73280000D01*
X127974448Y-73280000D02*
X144400000Y-73280000D01*
X147320000Y-76200000D02*
X147320000Y-79455000D01*
X154315000Y-72460000D02*
X166440000Y-72460000D01*
X163964328Y-72460000D02*
X151185000Y-85239328D01*
X166440000Y-72460000D02*
X167640000Y-73660000D01*
X144400000Y-73280000D02*
X147320000Y-76200000D01*
%TO.N,Net-(D2-Pad2)*%
X168085320Y-104977820D02*
X168987500Y-105880000D01*
X168085320Y-94495000D02*
X168085320Y-104977820D01*
%TO.N,/pin_7*%
X131360000Y-86080000D02*
X148840000Y-86080000D01*
X128949448Y-88490552D02*
X128949448Y-74305000D01*
X128540000Y-88900000D02*
X131360000Y-86080000D01*
X149490000Y-86730000D02*
X149885000Y-87125000D01*
X148840000Y-86080000D02*
X149490000Y-86730000D01*
X128540000Y-88900000D02*
X128949448Y-88490552D01*
%TO.N,/pin_3*%
X152206751Y-89070000D02*
X150180000Y-89070000D01*
X165075000Y-89410000D02*
X152546751Y-89410000D01*
X166100000Y-88385000D02*
X166085320Y-88399680D01*
X152546751Y-89410000D02*
X152206751Y-89070000D01*
X166100000Y-88385000D02*
X165075000Y-89410000D01*
X166085320Y-88399680D02*
X166085320Y-94495000D01*
%TD*%
%TA.AperFunction,NonConductor*%
G36*
X162198855Y-73113502D02*
G01*
X162245348Y-73167158D01*
X162255452Y-73237432D01*
X162225958Y-73302012D01*
X162219829Y-73308595D01*
X154581491Y-80946932D01*
X154519179Y-80980958D01*
X154448364Y-80975893D01*
X154391528Y-80933346D01*
X154369014Y-80883388D01*
X154339901Y-80742809D01*
X154339032Y-80738612D01*
X154247617Y-80480465D01*
X154122013Y-80237112D01*
X154112040Y-80222921D01*
X153967008Y-80016562D01*
X153964545Y-80013057D01*
X153778125Y-79812445D01*
X153774810Y-79809731D01*
X153774806Y-79809728D01*
X153613304Y-79677540D01*
X153566205Y-79638990D01*
X153332704Y-79495901D01*
X153328768Y-79494173D01*
X153085873Y-79387549D01*
X153085869Y-79387548D01*
X153081945Y-79385825D01*
X152818566Y-79310800D01*
X152814324Y-79310196D01*
X152814318Y-79310195D01*
X152609387Y-79281029D01*
X152547443Y-79272213D01*
X152403589Y-79271460D01*
X152277877Y-79270802D01*
X152277871Y-79270802D01*
X152273591Y-79270780D01*
X152269347Y-79271339D01*
X152269343Y-79271339D01*
X152195741Y-79281029D01*
X152002078Y-79306525D01*
X151997938Y-79307658D01*
X151997936Y-79307658D01*
X151930037Y-79326233D01*
X151737928Y-79378788D01*
X151733980Y-79380472D01*
X151489982Y-79484546D01*
X151489978Y-79484548D01*
X151486030Y-79486232D01*
X151466125Y-79498145D01*
X151254725Y-79624664D01*
X151254721Y-79624667D01*
X151251043Y-79626868D01*
X151037318Y-79798094D01*
X150848808Y-79996742D01*
X150689002Y-80219136D01*
X150560857Y-80461161D01*
X150559385Y-80465184D01*
X150559383Y-80465188D01*
X150552314Y-80484506D01*
X150466743Y-80718337D01*
X150408404Y-80985907D01*
X150386917Y-81258918D01*
X150402682Y-81532320D01*
X150403507Y-81536525D01*
X150403508Y-81536533D01*
X150433917Y-81691526D01*
X150455405Y-81801053D01*
X150544112Y-82060144D01*
X150667160Y-82304799D01*
X150669586Y-82308328D01*
X150669589Y-82308334D01*
X150819843Y-82526953D01*
X150822274Y-82530490D01*
X151006582Y-82733043D01*
X151216675Y-82908707D01*
X151220316Y-82910991D01*
X151445024Y-83051951D01*
X151445028Y-83051953D01*
X151448664Y-83054234D01*
X151573461Y-83110582D01*
X151694345Y-83165164D01*
X151694349Y-83165166D01*
X151698257Y-83166930D01*
X151702377Y-83168150D01*
X151702376Y-83168150D01*
X151956723Y-83243491D01*
X151956727Y-83243492D01*
X151960836Y-83244709D01*
X151965070Y-83245357D01*
X151965075Y-83245358D01*
X151994831Y-83249911D01*
X152059142Y-83279987D01*
X152096984Y-83340058D01*
X152096342Y-83411051D01*
X152064867Y-83463556D01*
X150792747Y-84735676D01*
X150784461Y-84743216D01*
X150777982Y-84747328D01*
X150772557Y-84753105D01*
X150731357Y-84796979D01*
X150728602Y-84799821D01*
X150708865Y-84819558D01*
X150706385Y-84822755D01*
X150698682Y-84831775D01*
X150668414Y-84864007D01*
X150664595Y-84870953D01*
X150664593Y-84870956D01*
X150658652Y-84881762D01*
X150647801Y-84898281D01*
X150635386Y-84914287D01*
X150632241Y-84921556D01*
X150632238Y-84921560D01*
X150617826Y-84954865D01*
X150612609Y-84965515D01*
X150591305Y-85004268D01*
X150589334Y-85011943D01*
X150589334Y-85011944D01*
X150586267Y-85023890D01*
X150579863Y-85042594D01*
X150571819Y-85061183D01*
X150570580Y-85069006D01*
X150570577Y-85069016D01*
X150564901Y-85104852D01*
X150562495Y-85116472D01*
X150551500Y-85159298D01*
X150551500Y-85179552D01*
X150549949Y-85199262D01*
X150546780Y-85219271D01*
X150547526Y-85227163D01*
X150550941Y-85263289D01*
X150551500Y-85275147D01*
X150551500Y-86220500D01*
X150531498Y-86288621D01*
X150477842Y-86335114D01*
X150425500Y-86346500D01*
X150390377Y-86346500D01*
X150322256Y-86326498D01*
X150281258Y-86283500D01*
X150232341Y-86198774D01*
X150229040Y-86193056D01*
X150101253Y-86051134D01*
X149946752Y-85938882D01*
X149940724Y-85936198D01*
X149940722Y-85936197D01*
X149778319Y-85863891D01*
X149778318Y-85863891D01*
X149772288Y-85861206D01*
X149678888Y-85841353D01*
X149591944Y-85822872D01*
X149591939Y-85822872D01*
X149585487Y-85821500D01*
X149529595Y-85821500D01*
X149461474Y-85801498D01*
X149440500Y-85784595D01*
X149343652Y-85687747D01*
X149336112Y-85679461D01*
X149332000Y-85672982D01*
X149282348Y-85626356D01*
X149279507Y-85623602D01*
X149259770Y-85603865D01*
X149256573Y-85601385D01*
X149247551Y-85593680D01*
X149234116Y-85581064D01*
X149215321Y-85563414D01*
X149208375Y-85559595D01*
X149208372Y-85559593D01*
X149197566Y-85553652D01*
X149181047Y-85542801D01*
X149180583Y-85542441D01*
X149165041Y-85530386D01*
X149157772Y-85527241D01*
X149157768Y-85527238D01*
X149124463Y-85512826D01*
X149113813Y-85507609D01*
X149075060Y-85486305D01*
X149055437Y-85481267D01*
X149036734Y-85474863D01*
X149025420Y-85469967D01*
X149025419Y-85469967D01*
X149018145Y-85466819D01*
X149010322Y-85465580D01*
X149010312Y-85465577D01*
X148974476Y-85459901D01*
X148962856Y-85457495D01*
X148927711Y-85448472D01*
X148927710Y-85448472D01*
X148920030Y-85446500D01*
X148899776Y-85446500D01*
X148880065Y-85444949D01*
X148867886Y-85443020D01*
X148860057Y-85441780D01*
X148830786Y-85444547D01*
X148816039Y-85445941D01*
X148804181Y-85446500D01*
X131438767Y-85446500D01*
X131427584Y-85445973D01*
X131420091Y-85444298D01*
X131412165Y-85444547D01*
X131412164Y-85444547D01*
X131352014Y-85446438D01*
X131348055Y-85446500D01*
X131320144Y-85446500D01*
X131316210Y-85446997D01*
X131316209Y-85446997D01*
X131316144Y-85447005D01*
X131304307Y-85447938D01*
X131272490Y-85448938D01*
X131268029Y-85449078D01*
X131260110Y-85449327D01*
X131242454Y-85454456D01*
X131240658Y-85454978D01*
X131221306Y-85458986D01*
X131214235Y-85459880D01*
X131201203Y-85461526D01*
X131193834Y-85464443D01*
X131193832Y-85464444D01*
X131160097Y-85477800D01*
X131148869Y-85481645D01*
X131106407Y-85493982D01*
X131099585Y-85498016D01*
X131099579Y-85498019D01*
X131088968Y-85504294D01*
X131071218Y-85512990D01*
X131059756Y-85517528D01*
X131059751Y-85517531D01*
X131052383Y-85520448D01*
X131034970Y-85533099D01*
X131016625Y-85546427D01*
X131006707Y-85552943D01*
X131005052Y-85553922D01*
X130968637Y-85575458D01*
X130954313Y-85589782D01*
X130939281Y-85602621D01*
X130922893Y-85614528D01*
X130894712Y-85648593D01*
X130886722Y-85657373D01*
X129798043Y-86746052D01*
X129735731Y-86780078D01*
X129664916Y-86775013D01*
X129608080Y-86732466D01*
X129583269Y-86665946D01*
X129582948Y-86656957D01*
X129582948Y-75541781D01*
X129602950Y-75473660D01*
X129642645Y-75434637D01*
X129767568Y-75357332D01*
X129773796Y-75353478D01*
X129898753Y-75228303D01*
X129991563Y-75077738D01*
X130047245Y-74909861D01*
X130049864Y-74884305D01*
X130057620Y-74808598D01*
X130057948Y-74805400D01*
X130057948Y-74039500D01*
X130077950Y-73971379D01*
X130131606Y-73924886D01*
X130183948Y-73913500D01*
X144085406Y-73913500D01*
X144153527Y-73933502D01*
X144174501Y-73950405D01*
X146649595Y-76425499D01*
X146683621Y-76487811D01*
X146686500Y-76514594D01*
X146686500Y-79145500D01*
X146666498Y-79213621D01*
X146612842Y-79260114D01*
X146560500Y-79271500D01*
X145771866Y-79271500D01*
X145709684Y-79278255D01*
X145573295Y-79329385D01*
X145456739Y-79416739D01*
X145369385Y-79533295D01*
X145318255Y-79669684D01*
X145311500Y-79731866D01*
X145311500Y-82828134D01*
X145318255Y-82890316D01*
X145369385Y-83026705D01*
X145456739Y-83143261D01*
X145573295Y-83230615D01*
X145709684Y-83281745D01*
X145771866Y-83288500D01*
X148868134Y-83288500D01*
X148930316Y-83281745D01*
X149066705Y-83230615D01*
X149183261Y-83143261D01*
X149270615Y-83026705D01*
X149321745Y-82890316D01*
X149328500Y-82828134D01*
X149328500Y-79731866D01*
X149321745Y-79669684D01*
X149270615Y-79533295D01*
X149183261Y-79416739D01*
X149066705Y-79329385D01*
X148930316Y-79278255D01*
X148868134Y-79271500D01*
X148703594Y-79271500D01*
X148635473Y-79251498D01*
X148588980Y-79197842D01*
X148578876Y-79127568D01*
X148608370Y-79062988D01*
X148614499Y-79056405D01*
X151506795Y-76164110D01*
X154540500Y-73130405D01*
X154602812Y-73096379D01*
X154629595Y-73093500D01*
X162130734Y-73093500D01*
X162198855Y-73113502D01*
G37*
%TD.AperFunction*%
%TA.AperFunction,NonConductor*%
G36*
X163362032Y-74062367D02*
G01*
X163418868Y-74104914D01*
X163443679Y-74171434D01*
X163444000Y-74180423D01*
X163444000Y-74335400D01*
X163454974Y-74441165D01*
X163510950Y-74608945D01*
X163604022Y-74759348D01*
X163729197Y-74884305D01*
X163735427Y-74888145D01*
X163735428Y-74888146D01*
X163872590Y-74972694D01*
X163879762Y-74977115D01*
X163927288Y-74992879D01*
X163945167Y-74998809D01*
X164003527Y-75039240D01*
X164030764Y-75104804D01*
X164031500Y-75118402D01*
X164031500Y-87050500D01*
X164011498Y-87118621D01*
X163957842Y-87165114D01*
X163905500Y-87176500D01*
X163699600Y-87176500D01*
X163696354Y-87176837D01*
X163696350Y-87176837D01*
X163600692Y-87186762D01*
X163600688Y-87186763D01*
X163593834Y-87187474D01*
X163587298Y-87189655D01*
X163587296Y-87189655D01*
X163565083Y-87197066D01*
X163426054Y-87243450D01*
X163275652Y-87336522D01*
X163150695Y-87461697D01*
X163146855Y-87467927D01*
X163146854Y-87467928D01*
X163080591Y-87575427D01*
X163057885Y-87612262D01*
X163055581Y-87619209D01*
X163024547Y-87712775D01*
X163002203Y-87780139D01*
X163001503Y-87786975D01*
X163001502Y-87786978D01*
X163000051Y-87801139D01*
X162991500Y-87884600D01*
X162991500Y-88650500D01*
X162971498Y-88718621D01*
X162917842Y-88765114D01*
X162865500Y-88776500D01*
X152861346Y-88776500D01*
X152793225Y-88756498D01*
X152772251Y-88739595D01*
X152710403Y-88677747D01*
X152702864Y-88669464D01*
X152698751Y-88662982D01*
X152696556Y-88660921D01*
X152669406Y-88597694D01*
X152668500Y-88582611D01*
X152668500Y-88208498D01*
X152665562Y-88171169D01*
X152619145Y-88011399D01*
X152534453Y-87868193D01*
X152531771Y-87865511D01*
X152506498Y-87801139D01*
X152520400Y-87731516D01*
X152530572Y-87715688D01*
X152534453Y-87711807D01*
X152619145Y-87568601D01*
X152665562Y-87408831D01*
X152667692Y-87381775D01*
X152668307Y-87373958D01*
X152668307Y-87373950D01*
X152668500Y-87371502D01*
X152668500Y-86938498D01*
X152667477Y-86925500D01*
X152666067Y-86907579D01*
X152666066Y-86907574D01*
X152665562Y-86901169D01*
X152628832Y-86774742D01*
X152621357Y-86749012D01*
X152621356Y-86749010D01*
X152619145Y-86741399D01*
X152569206Y-86656957D01*
X152538491Y-86605020D01*
X152538489Y-86605017D01*
X152534453Y-86598193D01*
X152416807Y-86480547D01*
X152409983Y-86476511D01*
X152409980Y-86476509D01*
X152280427Y-86399892D01*
X152280428Y-86399892D01*
X152273601Y-86395855D01*
X152265990Y-86393644D01*
X152265988Y-86393643D01*
X152213769Y-86378472D01*
X152113831Y-86349438D01*
X152107426Y-86348934D01*
X152107421Y-86348933D01*
X152078958Y-86346693D01*
X152078950Y-86346693D01*
X152076502Y-86346500D01*
X151944500Y-86346500D01*
X151876379Y-86326498D01*
X151829886Y-86272842D01*
X151818500Y-86220500D01*
X151818500Y-85553922D01*
X151838502Y-85485801D01*
X151855405Y-85464827D01*
X163228905Y-74091328D01*
X163291217Y-74057302D01*
X163362032Y-74062367D01*
G37*
%TD.AperFunction*%
%TA.AperFunction,NonConductor*%
G36*
X144670531Y-89342788D02*
G01*
X144727367Y-89385335D01*
X144752178Y-89451855D01*
X144752111Y-89470724D01*
X144751694Y-89476027D01*
X144751500Y-89478498D01*
X144751500Y-89911502D01*
X144751693Y-89913950D01*
X144751693Y-89913958D01*
X144753932Y-89942396D01*
X144754438Y-89948831D01*
X144800855Y-90108601D01*
X144885547Y-90251807D01*
X144888229Y-90254489D01*
X144913502Y-90318861D01*
X144899600Y-90388484D01*
X144889428Y-90404312D01*
X144885547Y-90408193D01*
X144800855Y-90551399D01*
X144754438Y-90711169D01*
X144751500Y-90748498D01*
X144751500Y-91181502D01*
X144754438Y-91218831D01*
X144800855Y-91378601D01*
X144804892Y-91385427D01*
X144881509Y-91514980D01*
X144881511Y-91514983D01*
X144885547Y-91521807D01*
X145003193Y-91639453D01*
X145010017Y-91643489D01*
X145010020Y-91643491D01*
X145117589Y-91707107D01*
X145146399Y-91724145D01*
X145154010Y-91726356D01*
X145154012Y-91726357D01*
X145206231Y-91741528D01*
X145306169Y-91770562D01*
X145312574Y-91771066D01*
X145312579Y-91771067D01*
X145341042Y-91773307D01*
X145341050Y-91773307D01*
X145343498Y-91773500D01*
X147126502Y-91773500D01*
X147128950Y-91773307D01*
X147128958Y-91773307D01*
X147157421Y-91771067D01*
X147157426Y-91771066D01*
X147163831Y-91770562D01*
X147263769Y-91741528D01*
X147315988Y-91726357D01*
X147315990Y-91726356D01*
X147323601Y-91724145D01*
X147352411Y-91707107D01*
X147459980Y-91643491D01*
X147459983Y-91643489D01*
X147466807Y-91639453D01*
X147584453Y-91521807D01*
X147588489Y-91514983D01*
X147588491Y-91514980D01*
X147665108Y-91385427D01*
X147669145Y-91378601D01*
X147715562Y-91218831D01*
X147718255Y-91184614D01*
X147743541Y-91118273D01*
X147800679Y-91076133D01*
X147843867Y-91068500D01*
X149576133Y-91068500D01*
X149644254Y-91088502D01*
X149690747Y-91142158D01*
X149701745Y-91184614D01*
X149704438Y-91218831D01*
X149750855Y-91378601D01*
X149754892Y-91385427D01*
X149831509Y-91514980D01*
X149831511Y-91514983D01*
X149835547Y-91521807D01*
X149953193Y-91639453D01*
X149960017Y-91643489D01*
X149960020Y-91643491D01*
X150067589Y-91707107D01*
X150096399Y-91724145D01*
X150104010Y-91726356D01*
X150104012Y-91726357D01*
X150156231Y-91741528D01*
X150256169Y-91770562D01*
X150262574Y-91771066D01*
X150262579Y-91771067D01*
X150291042Y-91773307D01*
X150291050Y-91773307D01*
X150293498Y-91773500D01*
X150425500Y-91773500D01*
X150493621Y-91793502D01*
X150540114Y-91847158D01*
X150551500Y-91899500D01*
X150551500Y-93613197D01*
X150531498Y-93681318D01*
X150514595Y-93702292D01*
X146557292Y-97659595D01*
X146494980Y-97693621D01*
X146468197Y-97696500D01*
X144220752Y-97696500D01*
X144152631Y-97676498D01*
X144106138Y-97622842D01*
X144094752Y-97570500D01*
X144094752Y-97354600D01*
X144083778Y-97248834D01*
X144027802Y-97081054D01*
X143934730Y-96930652D01*
X143809555Y-96805695D01*
X143692135Y-96733316D01*
X143644643Y-96680545D01*
X143632252Y-96626057D01*
X143632252Y-90329091D01*
X143652254Y-90260970D01*
X143669157Y-90239996D01*
X144263028Y-89646125D01*
X144537406Y-89371748D01*
X144599716Y-89337723D01*
X144670531Y-89342788D01*
G37*
%TD.AperFunction*%
%TA.AperFunction,NonConductor*%
G36*
X174593621Y-66668502D02*
G01*
X174640114Y-66722158D01*
X174651500Y-66774500D01*
X174651500Y-108485500D01*
X174631498Y-108553621D01*
X174577842Y-108600114D01*
X174525500Y-108611500D01*
X122654500Y-108611500D01*
X122586379Y-108591498D01*
X122539886Y-108537842D01*
X122528500Y-108485500D01*
X122528500Y-74805400D01*
X125840948Y-74805400D01*
X125841285Y-74808646D01*
X125841285Y-74808650D01*
X125849534Y-74888146D01*
X125851922Y-74911166D01*
X125854103Y-74917702D01*
X125854103Y-74917704D01*
X125890760Y-75027577D01*
X125907898Y-75078946D01*
X126000970Y-75229348D01*
X126126145Y-75354305D01*
X126132375Y-75358145D01*
X126132376Y-75358146D01*
X126269538Y-75442694D01*
X126276710Y-75447115D01*
X126356453Y-75473564D01*
X126438059Y-75500632D01*
X126438061Y-75500632D01*
X126444587Y-75502797D01*
X126451423Y-75503497D01*
X126451426Y-75503498D01*
X126494479Y-75507909D01*
X126549048Y-75513500D01*
X127349848Y-75513500D01*
X127353094Y-75513163D01*
X127353098Y-75513163D01*
X127448756Y-75503238D01*
X127448760Y-75503237D01*
X127455614Y-75502526D01*
X127462150Y-75500345D01*
X127462152Y-75500345D01*
X127594254Y-75456272D01*
X127623394Y-75446550D01*
X127773796Y-75353478D01*
X127860232Y-75266891D01*
X127922514Y-75232812D01*
X127993334Y-75237815D01*
X128038424Y-75266736D01*
X128126145Y-75354305D01*
X128132375Y-75358145D01*
X128132376Y-75358146D01*
X128256064Y-75434389D01*
X128303558Y-75487162D01*
X128315948Y-75541649D01*
X128315948Y-87565500D01*
X128295946Y-87633621D01*
X128242290Y-87680114D01*
X128189948Y-87691500D01*
X128139600Y-87691500D01*
X128136354Y-87691837D01*
X128136350Y-87691837D01*
X128040692Y-87701762D01*
X128040688Y-87701763D01*
X128033834Y-87702474D01*
X128027298Y-87704655D01*
X128027296Y-87704655D01*
X127895194Y-87748728D01*
X127866054Y-87758450D01*
X127715652Y-87851522D01*
X127590695Y-87976697D01*
X127586855Y-87982927D01*
X127586854Y-87982928D01*
X127564612Y-88019012D01*
X127497885Y-88127262D01*
X127442203Y-88295139D01*
X127431500Y-88399600D01*
X127431500Y-89400400D01*
X127431837Y-89403646D01*
X127431837Y-89403650D01*
X127439860Y-89480968D01*
X127442474Y-89506166D01*
X127444655Y-89512702D01*
X127444655Y-89512704D01*
X127471085Y-89591923D01*
X127498450Y-89673946D01*
X127591522Y-89824348D01*
X127716697Y-89949305D01*
X127722927Y-89953145D01*
X127722928Y-89953146D01*
X127860090Y-90037694D01*
X127867262Y-90042115D01*
X127935915Y-90064886D01*
X128028611Y-90095632D01*
X128028613Y-90095632D01*
X128035139Y-90097797D01*
X128041975Y-90098497D01*
X128041978Y-90098498D01*
X128085031Y-90102909D01*
X128139600Y-90108500D01*
X128940400Y-90108500D01*
X128943646Y-90108163D01*
X128943650Y-90108163D01*
X129039308Y-90098238D01*
X129039312Y-90098237D01*
X129046166Y-90097526D01*
X129052702Y-90095345D01*
X129052704Y-90095345D01*
X129202247Y-90045453D01*
X129213946Y-90041550D01*
X129364348Y-89948478D01*
X129450784Y-89861891D01*
X129513066Y-89827812D01*
X129583886Y-89832815D01*
X129628975Y-89861736D01*
X129716697Y-89949305D01*
X129715059Y-89950945D01*
X129749656Y-89999744D01*
X129756500Y-90040706D01*
X129756500Y-103521610D01*
X129736498Y-103589731D01*
X129682842Y-103636224D01*
X129670377Y-103641133D01*
X129535507Y-103686130D01*
X129535505Y-103686131D01*
X129528554Y-103688450D01*
X129378152Y-103781522D01*
X129253195Y-103906697D01*
X129160385Y-104057262D01*
X129104703Y-104225139D01*
X129094000Y-104329600D01*
X129094000Y-105280400D01*
X129094337Y-105283646D01*
X129094337Y-105283650D01*
X129103884Y-105375659D01*
X129104974Y-105386166D01*
X129107155Y-105392702D01*
X129107155Y-105392704D01*
X129126640Y-105451108D01*
X129160950Y-105553946D01*
X129254022Y-105704348D01*
X129379197Y-105829305D01*
X129385427Y-105833145D01*
X129385428Y-105833146D01*
X129522590Y-105917694D01*
X129529762Y-105922115D01*
X129609505Y-105948564D01*
X129691111Y-105975632D01*
X129691113Y-105975632D01*
X129697639Y-105977797D01*
X129704475Y-105978497D01*
X129704478Y-105978498D01*
X129747531Y-105982909D01*
X129802100Y-105988500D01*
X130977900Y-105988500D01*
X130981146Y-105988163D01*
X130981150Y-105988163D01*
X131076808Y-105978238D01*
X131076812Y-105978237D01*
X131083666Y-105977526D01*
X131090202Y-105975345D01*
X131090204Y-105975345D01*
X131222306Y-105931272D01*
X131251446Y-105921550D01*
X131401848Y-105828478D01*
X131526805Y-105703303D01*
X131530646Y-105697072D01*
X131615775Y-105558968D01*
X131615776Y-105558966D01*
X131619615Y-105552738D01*
X131655974Y-105443118D01*
X131673132Y-105391389D01*
X131673132Y-105391387D01*
X131675297Y-105384861D01*
X131676904Y-105369182D01*
X131685672Y-105283598D01*
X131686000Y-105280400D01*
X131686000Y-104329600D01*
X131675026Y-104223834D01*
X131656606Y-104168621D01*
X131621368Y-104063002D01*
X131619050Y-104056054D01*
X131525978Y-103905652D01*
X131400803Y-103780695D01*
X131394572Y-103776854D01*
X131256468Y-103691725D01*
X131256466Y-103691724D01*
X131250238Y-103687885D01*
X131109833Y-103641315D01*
X131051473Y-103600885D01*
X131024236Y-103535320D01*
X131023500Y-103521722D01*
X131023500Y-90195879D01*
X131043502Y-90127758D01*
X131097158Y-90081265D01*
X131109623Y-90076356D01*
X131206993Y-90043870D01*
X131206995Y-90043869D01*
X131213946Y-90041550D01*
X131364348Y-89948478D01*
X131489305Y-89823303D01*
X131540226Y-89740695D01*
X131578275Y-89678968D01*
X131578276Y-89678966D01*
X131582115Y-89672738D01*
X131630603Y-89526550D01*
X131635632Y-89511389D01*
X131635632Y-89511387D01*
X131637797Y-89504861D01*
X131648500Y-89400400D01*
X131648500Y-88739594D01*
X131668502Y-88671473D01*
X131685405Y-88650499D01*
X133135499Y-87200405D01*
X133197811Y-87166379D01*
X133224594Y-87163500D01*
X144625500Y-87163500D01*
X144693621Y-87183502D01*
X144740114Y-87237158D01*
X144751500Y-87289500D01*
X144751500Y-87313654D01*
X144731498Y-87381775D01*
X144714595Y-87402749D01*
X142606499Y-89510845D01*
X142598213Y-89518385D01*
X142591734Y-89522497D01*
X142586309Y-89528274D01*
X142545109Y-89572148D01*
X142542354Y-89574990D01*
X142522617Y-89594727D01*
X142520137Y-89597924D01*
X142512434Y-89606944D01*
X142482166Y-89639176D01*
X142478347Y-89646122D01*
X142478345Y-89646125D01*
X142472404Y-89656931D01*
X142461553Y-89673450D01*
X142449138Y-89689456D01*
X142445993Y-89696725D01*
X142445990Y-89696729D01*
X142431578Y-89730034D01*
X142426361Y-89740684D01*
X142405057Y-89779437D01*
X142403086Y-89787112D01*
X142403086Y-89787113D01*
X142400019Y-89799059D01*
X142393615Y-89817763D01*
X142389267Y-89827812D01*
X142385571Y-89836352D01*
X142384332Y-89844175D01*
X142384329Y-89844185D01*
X142378653Y-89880021D01*
X142376247Y-89891641D01*
X142368160Y-89923142D01*
X142365252Y-89934467D01*
X142365252Y-89954721D01*
X142363701Y-89974431D01*
X142360532Y-89994440D01*
X142361278Y-90002332D01*
X142364693Y-90038458D01*
X142365252Y-90050316D01*
X142365252Y-96625954D01*
X142345250Y-96694075D01*
X142305555Y-96733098D01*
X142186904Y-96806522D01*
X142061947Y-96931697D01*
X142059346Y-96935916D01*
X142002222Y-96976417D01*
X141931299Y-96979649D01*
X141869887Y-96944024D01*
X141863330Y-96936470D01*
X141859730Y-96930652D01*
X141734555Y-96805695D01*
X141617137Y-96733317D01*
X141590220Y-96716725D01*
X141590218Y-96716724D01*
X141583990Y-96712885D01*
X141504247Y-96686436D01*
X141422641Y-96659368D01*
X141422639Y-96659368D01*
X141416113Y-96657203D01*
X141409277Y-96656503D01*
X141409274Y-96656502D01*
X141366221Y-96652091D01*
X141311652Y-96646500D01*
X140535852Y-96646500D01*
X140532606Y-96646837D01*
X140532602Y-96646837D01*
X140436944Y-96656762D01*
X140436940Y-96656763D01*
X140430086Y-96657474D01*
X140423550Y-96659655D01*
X140423548Y-96659655D01*
X140360934Y-96680545D01*
X140262306Y-96713450D01*
X140111904Y-96806522D01*
X139986947Y-96931697D01*
X139894137Y-97082262D01*
X139838455Y-97250139D01*
X139827752Y-97354600D01*
X139827752Y-98405400D01*
X139838726Y-98511166D01*
X139894702Y-98678946D01*
X139987774Y-98829348D01*
X140112949Y-98954305D01*
X140119179Y-98958145D01*
X140119180Y-98958146D01*
X140127967Y-98963562D01*
X140263514Y-99047115D01*
X140343257Y-99073564D01*
X140424863Y-99100632D01*
X140424865Y-99100632D01*
X140431391Y-99102797D01*
X140438227Y-99103497D01*
X140438230Y-99103498D01*
X140481283Y-99107909D01*
X140535852Y-99113500D01*
X140565158Y-99113500D01*
X140633279Y-99133502D01*
X140679772Y-99187158D01*
X140689876Y-99257432D01*
X140660382Y-99322012D01*
X140654253Y-99328595D01*
X135848252Y-104134595D01*
X135785940Y-104168621D01*
X135759157Y-104171500D01*
X134623357Y-104171500D01*
X134555236Y-104151498D01*
X134508743Y-104097842D01*
X134503834Y-104085378D01*
X134496370Y-104063005D01*
X134496367Y-104062998D01*
X134494050Y-104056054D01*
X134400978Y-103905652D01*
X134275803Y-103780695D01*
X134269572Y-103776854D01*
X134131468Y-103691725D01*
X134131466Y-103691724D01*
X134125238Y-103687885D01*
X134045495Y-103661436D01*
X133963889Y-103634368D01*
X133963887Y-103634368D01*
X133957361Y-103632203D01*
X133950525Y-103631503D01*
X133950522Y-103631502D01*
X133899074Y-103626231D01*
X133852900Y-103621500D01*
X132677100Y-103621500D01*
X132673854Y-103621837D01*
X132673850Y-103621837D01*
X132578192Y-103631762D01*
X132578188Y-103631763D01*
X132571334Y-103632474D01*
X132564798Y-103634655D01*
X132564796Y-103634655D01*
X132544834Y-103641315D01*
X132403554Y-103688450D01*
X132253152Y-103781522D01*
X132128195Y-103906697D01*
X132035385Y-104057262D01*
X131979703Y-104225139D01*
X131969000Y-104329600D01*
X131969000Y-105280400D01*
X131969337Y-105283646D01*
X131969337Y-105283650D01*
X131978884Y-105375659D01*
X131979974Y-105386166D01*
X131982155Y-105392702D01*
X131982155Y-105392704D01*
X132001640Y-105451108D01*
X132035950Y-105553946D01*
X132129022Y-105704348D01*
X132254197Y-105829305D01*
X132260427Y-105833145D01*
X132260428Y-105833146D01*
X132397590Y-105917694D01*
X132404762Y-105922115D01*
X132484505Y-105948564D01*
X132566111Y-105975632D01*
X132566113Y-105975632D01*
X132572639Y-105977797D01*
X132579475Y-105978497D01*
X132579478Y-105978498D01*
X132622531Y-105982909D01*
X132677100Y-105988500D01*
X133852900Y-105988500D01*
X133856146Y-105988163D01*
X133856150Y-105988163D01*
X133951808Y-105978238D01*
X133951812Y-105978237D01*
X133958666Y-105977526D01*
X133965202Y-105975345D01*
X133965204Y-105975345D01*
X134097306Y-105931272D01*
X134126446Y-105921550D01*
X134276848Y-105828478D01*
X134401805Y-105703303D01*
X134405646Y-105697072D01*
X134490775Y-105558968D01*
X134490776Y-105558966D01*
X134494615Y-105552738D01*
X134503872Y-105524830D01*
X134544303Y-105466472D01*
X134609867Y-105439236D01*
X134623464Y-105438500D01*
X135994985Y-105438500D01*
X136006168Y-105439027D01*
X136013661Y-105440702D01*
X136021587Y-105440453D01*
X136021588Y-105440453D01*
X136081738Y-105438562D01*
X136085697Y-105438500D01*
X136113608Y-105438500D01*
X136117543Y-105438003D01*
X136117608Y-105437995D01*
X136129445Y-105437062D01*
X136161703Y-105436048D01*
X136165722Y-105435922D01*
X136173641Y-105435673D01*
X136193095Y-105430021D01*
X136212452Y-105426013D01*
X136224682Y-105424468D01*
X136224683Y-105424468D01*
X136232549Y-105423474D01*
X136239920Y-105420555D01*
X136239922Y-105420555D01*
X136273664Y-105407196D01*
X136284894Y-105403351D01*
X136319735Y-105393229D01*
X136319736Y-105393229D01*
X136327345Y-105391018D01*
X136334164Y-105386985D01*
X136334169Y-105386983D01*
X136344780Y-105380707D01*
X136362528Y-105372012D01*
X136381369Y-105364552D01*
X136417139Y-105338564D01*
X136427059Y-105332048D01*
X136458287Y-105313580D01*
X136458290Y-105313578D01*
X136465114Y-105309542D01*
X136479435Y-105295221D01*
X136494469Y-105282380D01*
X136497194Y-105280400D01*
X136510859Y-105270472D01*
X136539050Y-105236395D01*
X136547040Y-105227616D01*
X142624252Y-99150405D01*
X142686564Y-99116379D01*
X142713347Y-99113500D01*
X143284158Y-99113500D01*
X143352279Y-99133502D01*
X143373253Y-99150405D01*
X150495095Y-106272247D01*
X150502639Y-106280537D01*
X150506752Y-106287018D01*
X150512529Y-106292443D01*
X150556419Y-106333658D01*
X150559261Y-106336413D01*
X150578982Y-106356134D01*
X150582177Y-106358612D01*
X150591199Y-106366318D01*
X150623431Y-106396586D01*
X150630380Y-106400406D01*
X150641184Y-106406346D01*
X150657708Y-106417199D01*
X150673711Y-106429613D01*
X150714295Y-106447176D01*
X150724925Y-106452383D01*
X150763692Y-106473695D01*
X150771369Y-106475666D01*
X150771374Y-106475668D01*
X150783310Y-106478732D01*
X150802018Y-106485137D01*
X150820607Y-106493181D01*
X150828432Y-106494420D01*
X150828434Y-106494421D01*
X150864271Y-106500097D01*
X150875892Y-106502504D01*
X150911041Y-106511528D01*
X150918722Y-106513500D01*
X150938983Y-106513500D01*
X150958692Y-106515051D01*
X150978695Y-106518219D01*
X150986587Y-106517473D01*
X150991814Y-106516979D01*
X151022706Y-106514059D01*
X151034563Y-106513500D01*
X164673550Y-106513500D01*
X164741671Y-106533502D01*
X164788164Y-106587158D01*
X164798877Y-106626496D01*
X164802474Y-106661165D01*
X164858450Y-106828945D01*
X164951522Y-106979348D01*
X165076697Y-107104305D01*
X165082927Y-107108145D01*
X165082928Y-107108146D01*
X165220090Y-107192694D01*
X165227262Y-107197115D01*
X165307005Y-107223564D01*
X165388611Y-107250632D01*
X165388613Y-107250632D01*
X165395139Y-107252797D01*
X165401975Y-107253497D01*
X165401978Y-107253498D01*
X165445031Y-107257909D01*
X165499600Y-107263500D01*
X166525400Y-107263500D01*
X166528646Y-107263163D01*
X166528650Y-107263163D01*
X166624307Y-107253238D01*
X166624311Y-107253237D01*
X166631165Y-107252526D01*
X166637701Y-107250345D01*
X166637703Y-107250345D01*
X166769805Y-107206272D01*
X166798945Y-107196550D01*
X166949348Y-107103478D01*
X167074305Y-106978303D01*
X167167115Y-106827738D01*
X167222797Y-106659861D01*
X167226216Y-106626497D01*
X167233172Y-106558598D01*
X167233500Y-106555400D01*
X167233500Y-105207768D01*
X167253502Y-105139647D01*
X167275763Y-105120358D01*
X167243308Y-105105536D01*
X167206296Y-105050188D01*
X167168868Y-104938003D01*
X167166550Y-104931055D01*
X167073478Y-104780652D01*
X166948303Y-104655695D01*
X166942072Y-104651854D01*
X166803968Y-104566725D01*
X166803966Y-104566724D01*
X166797738Y-104562885D01*
X166637254Y-104509655D01*
X166636389Y-104509368D01*
X166636387Y-104509368D01*
X166629861Y-104507203D01*
X166623025Y-104506503D01*
X166623022Y-104506502D01*
X166579969Y-104502091D01*
X166525400Y-104496500D01*
X165499600Y-104496500D01*
X165496354Y-104496837D01*
X165496350Y-104496837D01*
X165400693Y-104506762D01*
X165400689Y-104506763D01*
X165393835Y-104507474D01*
X165387299Y-104509655D01*
X165387297Y-104509655D01*
X165255195Y-104553728D01*
X165226055Y-104563450D01*
X165075652Y-104656522D01*
X164950695Y-104781697D01*
X164946855Y-104787927D01*
X164946854Y-104787928D01*
X164872916Y-104907878D01*
X164857885Y-104932262D01*
X164855581Y-104939209D01*
X164809403Y-105078433D01*
X164802203Y-105100139D01*
X164801502Y-105106977D01*
X164801502Y-105106979D01*
X164798801Y-105133342D01*
X164771960Y-105199070D01*
X164713845Y-105239852D01*
X164673457Y-105246500D01*
X151313347Y-105246500D01*
X151245226Y-105226498D01*
X151224252Y-105209595D01*
X145193252Y-99178595D01*
X145159226Y-99116283D01*
X145164291Y-99045468D01*
X145206838Y-98988632D01*
X145273358Y-98963821D01*
X145282347Y-98963500D01*
X146704025Y-98963500D01*
X146715208Y-98964027D01*
X146722701Y-98965702D01*
X146730627Y-98965453D01*
X146730628Y-98965453D01*
X146790778Y-98963562D01*
X146794737Y-98963500D01*
X146822648Y-98963500D01*
X146826583Y-98963003D01*
X146826648Y-98962995D01*
X146838485Y-98962062D01*
X146870743Y-98961048D01*
X146874762Y-98960922D01*
X146882681Y-98960673D01*
X146902135Y-98955021D01*
X146921492Y-98951013D01*
X146933722Y-98949468D01*
X146933723Y-98949468D01*
X146941589Y-98948474D01*
X146948960Y-98945555D01*
X146948962Y-98945555D01*
X146982704Y-98932196D01*
X146993934Y-98928351D01*
X147028775Y-98918229D01*
X147028776Y-98918229D01*
X147036385Y-98916018D01*
X147043204Y-98911985D01*
X147043209Y-98911983D01*
X147053820Y-98905707D01*
X147071568Y-98897012D01*
X147090409Y-98889552D01*
X147126179Y-98863564D01*
X147136099Y-98857048D01*
X147167327Y-98838580D01*
X147167330Y-98838578D01*
X147174154Y-98834542D01*
X147188475Y-98820221D01*
X147203509Y-98807380D01*
X147213486Y-98800131D01*
X147219899Y-98795472D01*
X147248090Y-98761395D01*
X147256080Y-98752616D01*
X151577247Y-94431449D01*
X151585537Y-94423905D01*
X151592018Y-94419792D01*
X151638659Y-94370124D01*
X151641413Y-94367283D01*
X151661134Y-94347562D01*
X151663612Y-94344367D01*
X151671318Y-94335345D01*
X151696158Y-94308893D01*
X151701586Y-94303113D01*
X151711346Y-94285360D01*
X151722199Y-94268837D01*
X151729753Y-94259098D01*
X151734613Y-94252833D01*
X151752176Y-94212249D01*
X151757383Y-94201619D01*
X151778695Y-94162852D01*
X151780666Y-94155175D01*
X151780668Y-94155170D01*
X151783732Y-94143234D01*
X151790138Y-94124522D01*
X151795033Y-94113211D01*
X151798181Y-94105937D01*
X151799421Y-94098109D01*
X151799423Y-94098102D01*
X151805099Y-94062268D01*
X151807505Y-94050648D01*
X151816528Y-94015503D01*
X151816528Y-94015502D01*
X151818500Y-94007822D01*
X151818500Y-93987568D01*
X151820051Y-93967857D01*
X151821980Y-93955678D01*
X151823220Y-93947849D01*
X151819059Y-93903830D01*
X151818500Y-93891973D01*
X151818500Y-91899500D01*
X151838502Y-91831379D01*
X151892158Y-91784886D01*
X151944500Y-91773500D01*
X152076502Y-91773500D01*
X152078950Y-91773307D01*
X152078958Y-91773307D01*
X152107421Y-91771067D01*
X152107426Y-91771066D01*
X152113831Y-91770562D01*
X152213769Y-91741528D01*
X152265988Y-91726357D01*
X152265990Y-91726356D01*
X152273601Y-91724145D01*
X152302411Y-91707107D01*
X152409980Y-91643491D01*
X152409983Y-91643489D01*
X152416807Y-91639453D01*
X152534453Y-91521807D01*
X152538489Y-91514983D01*
X152538491Y-91514980D01*
X152615108Y-91385427D01*
X152619145Y-91378601D01*
X152665562Y-91218831D01*
X152668500Y-91181502D01*
X152668500Y-90748498D01*
X152665562Y-90711169D01*
X152619145Y-90551399D01*
X152534453Y-90408193D01*
X152531771Y-90405511D01*
X152506498Y-90341139D01*
X152520400Y-90271516D01*
X152530572Y-90255688D01*
X152534453Y-90251807D01*
X152619145Y-90108601D01*
X152621326Y-90109891D01*
X152658772Y-90064886D01*
X152729000Y-90043500D01*
X164996233Y-90043500D01*
X165007416Y-90044027D01*
X165014909Y-90045702D01*
X165022835Y-90045453D01*
X165022836Y-90045453D01*
X165082986Y-90043562D01*
X165086945Y-90043500D01*
X165114856Y-90043500D01*
X165118791Y-90043003D01*
X165118856Y-90042995D01*
X165130693Y-90042062D01*
X165162951Y-90041048D01*
X165166970Y-90040922D01*
X165174889Y-90040673D01*
X165194343Y-90035021D01*
X165213700Y-90031013D01*
X165225930Y-90029468D01*
X165225931Y-90029468D01*
X165233797Y-90028474D01*
X165241168Y-90025555D01*
X165241170Y-90025555D01*
X165274912Y-90012196D01*
X165286133Y-90008354D01*
X165290658Y-90007039D01*
X165361654Y-90007236D01*
X165421274Y-90045786D01*
X165450587Y-90110448D01*
X165451820Y-90128033D01*
X165451820Y-93258219D01*
X165431818Y-93326340D01*
X165392123Y-93365363D01*
X165260972Y-93446522D01*
X165136015Y-93571697D01*
X165043205Y-93722262D01*
X164987523Y-93890139D01*
X164976820Y-93994600D01*
X164976820Y-94995400D01*
X164987794Y-95101166D01*
X165043770Y-95268946D01*
X165136842Y-95419348D01*
X165262017Y-95544305D01*
X165268247Y-95548145D01*
X165268248Y-95548146D01*
X165405410Y-95632694D01*
X165412582Y-95637115D01*
X165492325Y-95663564D01*
X165573931Y-95690632D01*
X165573933Y-95690632D01*
X165580459Y-95692797D01*
X165587295Y-95693497D01*
X165587298Y-95693498D01*
X165630351Y-95697909D01*
X165684920Y-95703500D01*
X166485720Y-95703500D01*
X166488966Y-95703163D01*
X166488970Y-95703163D01*
X166584628Y-95693238D01*
X166584632Y-95693237D01*
X166591486Y-95692526D01*
X166598022Y-95690345D01*
X166598024Y-95690345D01*
X166730126Y-95646272D01*
X166759266Y-95636550D01*
X166909668Y-95543478D01*
X166996104Y-95456891D01*
X167058386Y-95422812D01*
X167129206Y-95427815D01*
X167174296Y-95456736D01*
X167262017Y-95544305D01*
X167268247Y-95548145D01*
X167268248Y-95548146D01*
X167391936Y-95624389D01*
X167439430Y-95677162D01*
X167451820Y-95731649D01*
X167451820Y-104899053D01*
X167451293Y-104910236D01*
X167449618Y-104917729D01*
X167449867Y-104925655D01*
X167449867Y-104925656D01*
X167451758Y-104985806D01*
X167451820Y-104989765D01*
X167451820Y-105010312D01*
X167431818Y-105078433D01*
X167409557Y-105097722D01*
X167442012Y-105112544D01*
X167476652Y-105161386D01*
X167483124Y-105177733D01*
X167486969Y-105188962D01*
X167499302Y-105231413D01*
X167503335Y-105238232D01*
X167503337Y-105238237D01*
X167509613Y-105248848D01*
X167518308Y-105266596D01*
X167525768Y-105285437D01*
X167530430Y-105291853D01*
X167530430Y-105291854D01*
X167551756Y-105321207D01*
X167558272Y-105331127D01*
X167575283Y-105359890D01*
X167580778Y-105369182D01*
X167595099Y-105383503D01*
X167607939Y-105398536D01*
X167619848Y-105414927D01*
X167650704Y-105440453D01*
X167653925Y-105443118D01*
X167662704Y-105451108D01*
X167729595Y-105517999D01*
X167763621Y-105580311D01*
X167766500Y-105607094D01*
X167766500Y-106555400D01*
X167777474Y-106661165D01*
X167833450Y-106828945D01*
X167926522Y-106979348D01*
X168051697Y-107104305D01*
X168057927Y-107108145D01*
X168057928Y-107108146D01*
X168195090Y-107192694D01*
X168202262Y-107197115D01*
X168282005Y-107223564D01*
X168363611Y-107250632D01*
X168363613Y-107250632D01*
X168370139Y-107252797D01*
X168376975Y-107253497D01*
X168376978Y-107253498D01*
X168420031Y-107257909D01*
X168474600Y-107263500D01*
X169500400Y-107263500D01*
X169503646Y-107263163D01*
X169503650Y-107263163D01*
X169599307Y-107253238D01*
X169599311Y-107253237D01*
X169606165Y-107252526D01*
X169612701Y-107250345D01*
X169612703Y-107250345D01*
X169744805Y-107206272D01*
X169773945Y-107196550D01*
X169924348Y-107103478D01*
X170049305Y-106978303D01*
X170142115Y-106827738D01*
X170197797Y-106659861D01*
X170201216Y-106626497D01*
X170208172Y-106558598D01*
X170208500Y-106555400D01*
X170208500Y-105204600D01*
X170207926Y-105199070D01*
X170198238Y-105105693D01*
X170198237Y-105105689D01*
X170197526Y-105098835D01*
X170190720Y-105078433D01*
X170143868Y-104938003D01*
X170141550Y-104931055D01*
X170048478Y-104780652D01*
X169923303Y-104655695D01*
X169917072Y-104651854D01*
X169778968Y-104566725D01*
X169778966Y-104566724D01*
X169772738Y-104562885D01*
X169612254Y-104509655D01*
X169611389Y-104509368D01*
X169611387Y-104509368D01*
X169604861Y-104507203D01*
X169598025Y-104506503D01*
X169598022Y-104506502D01*
X169554969Y-104502091D01*
X169500400Y-104496500D01*
X168844820Y-104496500D01*
X168776699Y-104476498D01*
X168730206Y-104422842D01*
X168718820Y-104370500D01*
X168718820Y-95731781D01*
X168738822Y-95663660D01*
X168778517Y-95624637D01*
X168903440Y-95547332D01*
X168909668Y-95543478D01*
X169034625Y-95418303D01*
X169127435Y-95267738D01*
X169183117Y-95099861D01*
X169193820Y-94995400D01*
X169193820Y-93994600D01*
X169193483Y-93991350D01*
X169183558Y-93895692D01*
X169183557Y-93895688D01*
X169182846Y-93888834D01*
X169126870Y-93721054D01*
X169033798Y-93570652D01*
X168908623Y-93445695D01*
X168902392Y-93441854D01*
X168764288Y-93356725D01*
X168764286Y-93356724D01*
X168758058Y-93352885D01*
X168678027Y-93326340D01*
X168596709Y-93299368D01*
X168596707Y-93299368D01*
X168590181Y-93297203D01*
X168583345Y-93296503D01*
X168583342Y-93296502D01*
X168540289Y-93292091D01*
X168485720Y-93286500D01*
X167684920Y-93286500D01*
X167681674Y-93286837D01*
X167681670Y-93286837D01*
X167586012Y-93296762D01*
X167586008Y-93296763D01*
X167579154Y-93297474D01*
X167572618Y-93299655D01*
X167572616Y-93299655D01*
X167492632Y-93326340D01*
X167411374Y-93353450D01*
X167260972Y-93446522D01*
X167255799Y-93451704D01*
X167174536Y-93533109D01*
X167112254Y-93567188D01*
X167041434Y-93562185D01*
X166996345Y-93533264D01*
X166913803Y-93450866D01*
X166908623Y-93445695D01*
X166902392Y-93441854D01*
X166778704Y-93365611D01*
X166731210Y-93312838D01*
X166718820Y-93258351D01*
X166718820Y-89630865D01*
X166738822Y-89562744D01*
X166778516Y-89523722D01*
X166924348Y-89433478D01*
X167049305Y-89308303D01*
X167142115Y-89157738D01*
X167197797Y-88989861D01*
X167208500Y-88885400D01*
X167208500Y-87884600D01*
X167204668Y-87847668D01*
X167198238Y-87785692D01*
X167198237Y-87785688D01*
X167197526Y-87778834D01*
X167190726Y-87758450D01*
X167143868Y-87618002D01*
X167141550Y-87611054D01*
X167048478Y-87460652D01*
X166923303Y-87335695D01*
X166848361Y-87289500D01*
X166778968Y-87246725D01*
X166778966Y-87246724D01*
X166772738Y-87242885D01*
X166644664Y-87200405D01*
X166611389Y-87189368D01*
X166611387Y-87189368D01*
X166604861Y-87187203D01*
X166598025Y-87186503D01*
X166598022Y-87186502D01*
X166554969Y-87182091D01*
X166500400Y-87176500D01*
X165699600Y-87176500D01*
X165696354Y-87176837D01*
X165696350Y-87176837D01*
X165600692Y-87186762D01*
X165600688Y-87186763D01*
X165593834Y-87187474D01*
X165587292Y-87189657D01*
X165587290Y-87189657D01*
X165464377Y-87230664D01*
X165393427Y-87233249D01*
X165332343Y-87197066D01*
X165300518Y-87133602D01*
X165298500Y-87111141D01*
X165298500Y-75118367D01*
X165318502Y-75050246D01*
X165372158Y-75003753D01*
X165384623Y-74998844D01*
X165444501Y-74978867D01*
X165444503Y-74978866D01*
X165451445Y-74976550D01*
X165559214Y-74909861D01*
X165595620Y-74887332D01*
X165601848Y-74883478D01*
X165726805Y-74758303D01*
X165819615Y-74607738D01*
X165875297Y-74439861D01*
X165886000Y-74335400D01*
X165886000Y-73219500D01*
X165906002Y-73151379D01*
X165959658Y-73104886D01*
X166012000Y-73093500D01*
X166125406Y-73093500D01*
X166193527Y-73113502D01*
X166214501Y-73130405D01*
X166382095Y-73297999D01*
X166416121Y-73360311D01*
X166419000Y-73387094D01*
X166419000Y-74335400D01*
X166429974Y-74441165D01*
X166485950Y-74608945D01*
X166579022Y-74759348D01*
X166704197Y-74884305D01*
X166710427Y-74888145D01*
X166710428Y-74888146D01*
X166847590Y-74972694D01*
X166854762Y-74977115D01*
X166920168Y-74998809D01*
X167016111Y-75030632D01*
X167016113Y-75030632D01*
X167022639Y-75032797D01*
X167029475Y-75033497D01*
X167029478Y-75033498D01*
X167072531Y-75037909D01*
X167127100Y-75043500D01*
X168152900Y-75043500D01*
X168156146Y-75043163D01*
X168156150Y-75043163D01*
X168251807Y-75033238D01*
X168251811Y-75033237D01*
X168258665Y-75032526D01*
X168265201Y-75030345D01*
X168265203Y-75030345D01*
X168397305Y-74986272D01*
X168426445Y-74976550D01*
X168576848Y-74883478D01*
X168701805Y-74758303D01*
X168794615Y-74607738D01*
X168850297Y-74439861D01*
X168861000Y-74335400D01*
X168861000Y-72984600D01*
X168850026Y-72878835D01*
X168846264Y-72867557D01*
X168796368Y-72718003D01*
X168794050Y-72711055D01*
X168700978Y-72560652D01*
X168575803Y-72435695D01*
X168425238Y-72342885D01*
X168345495Y-72316436D01*
X168263889Y-72289368D01*
X168263887Y-72289368D01*
X168257361Y-72287203D01*
X168250525Y-72286503D01*
X168250522Y-72286502D01*
X168207469Y-72282091D01*
X168152900Y-72276500D01*
X167204595Y-72276500D01*
X167136474Y-72256498D01*
X167115500Y-72239595D01*
X166943652Y-72067747D01*
X166936112Y-72059461D01*
X166932000Y-72052982D01*
X166882348Y-72006356D01*
X166879507Y-72003602D01*
X166859770Y-71983865D01*
X166856573Y-71981385D01*
X166847551Y-71973680D01*
X166834122Y-71961069D01*
X166815321Y-71943414D01*
X166808375Y-71939595D01*
X166808372Y-71939593D01*
X166797566Y-71933652D01*
X166781047Y-71922801D01*
X166780583Y-71922441D01*
X166765041Y-71910386D01*
X166757772Y-71907241D01*
X166757768Y-71907238D01*
X166724463Y-71892826D01*
X166713813Y-71887609D01*
X166675060Y-71866305D01*
X166655437Y-71861267D01*
X166636734Y-71854863D01*
X166625420Y-71849967D01*
X166625419Y-71849967D01*
X166618145Y-71846819D01*
X166610322Y-71845580D01*
X166610312Y-71845577D01*
X166574476Y-71839901D01*
X166562856Y-71837495D01*
X166527711Y-71828472D01*
X166527710Y-71828472D01*
X166520030Y-71826500D01*
X166499776Y-71826500D01*
X166480065Y-71824949D01*
X166467886Y-71823020D01*
X166460057Y-71821780D01*
X166430786Y-71824547D01*
X166416039Y-71825941D01*
X166404181Y-71826500D01*
X164043095Y-71826500D01*
X164031912Y-71825973D01*
X164024419Y-71824298D01*
X164016493Y-71824547D01*
X164016492Y-71824547D01*
X163956329Y-71826438D01*
X163952371Y-71826500D01*
X154393767Y-71826500D01*
X154382584Y-71825973D01*
X154375091Y-71824298D01*
X154367165Y-71824547D01*
X154367164Y-71824547D01*
X154307001Y-71826438D01*
X154303043Y-71826500D01*
X154275144Y-71826500D01*
X154271154Y-71827004D01*
X154259320Y-71827936D01*
X154215111Y-71829326D01*
X154207497Y-71831538D01*
X154207492Y-71831539D01*
X154195659Y-71834977D01*
X154176296Y-71838988D01*
X154156203Y-71841526D01*
X154148836Y-71844443D01*
X154148831Y-71844444D01*
X154115092Y-71857802D01*
X154103865Y-71861646D01*
X154061407Y-71873982D01*
X154054581Y-71878019D01*
X154043972Y-71884293D01*
X154026224Y-71892988D01*
X154007383Y-71900448D01*
X154000967Y-71905110D01*
X154000966Y-71905110D01*
X153971613Y-71926436D01*
X153961693Y-71932952D01*
X153930465Y-71951420D01*
X153930462Y-71951422D01*
X153923638Y-71955458D01*
X153909317Y-71969779D01*
X153894284Y-71982619D01*
X153877893Y-71994528D01*
X153869217Y-72005016D01*
X153849702Y-72028605D01*
X153841712Y-72037384D01*
X148168595Y-77710500D01*
X148106283Y-77744526D01*
X148035468Y-77739461D01*
X147978632Y-77696914D01*
X147953821Y-77630394D01*
X147953500Y-77621405D01*
X147953500Y-76278768D01*
X147954027Y-76267585D01*
X147955702Y-76260092D01*
X147953562Y-76192001D01*
X147953500Y-76188044D01*
X147953500Y-76160144D01*
X147952996Y-76156153D01*
X147952063Y-76144311D01*
X147950923Y-76108036D01*
X147950674Y-76100111D01*
X147945021Y-76080652D01*
X147941012Y-76061293D01*
X147940846Y-76059983D01*
X147938474Y-76041203D01*
X147935558Y-76033837D01*
X147935556Y-76033831D01*
X147922200Y-76000098D01*
X147918355Y-75988868D01*
X147908230Y-75954017D01*
X147908230Y-75954016D01*
X147906019Y-75946407D01*
X147895705Y-75928966D01*
X147887008Y-75911213D01*
X147882472Y-75899758D01*
X147879552Y-75892383D01*
X147853563Y-75856612D01*
X147847047Y-75846692D01*
X147828578Y-75815463D01*
X147824542Y-75808638D01*
X147810221Y-75794317D01*
X147797380Y-75779283D01*
X147790131Y-75769306D01*
X147785472Y-75762893D01*
X147751395Y-75734702D01*
X147742616Y-75726712D01*
X144903652Y-72887747D01*
X144896112Y-72879461D01*
X144892000Y-72872982D01*
X144842348Y-72826356D01*
X144839507Y-72823602D01*
X144819770Y-72803865D01*
X144816573Y-72801385D01*
X144807551Y-72793680D01*
X144794122Y-72781069D01*
X144775321Y-72763414D01*
X144768375Y-72759595D01*
X144768372Y-72759593D01*
X144757566Y-72753652D01*
X144741047Y-72742801D01*
X144740583Y-72742441D01*
X144725041Y-72730386D01*
X144717772Y-72727241D01*
X144717768Y-72727238D01*
X144684463Y-72712826D01*
X144673813Y-72707609D01*
X144635060Y-72686305D01*
X144615437Y-72681267D01*
X144596734Y-72674863D01*
X144585420Y-72669967D01*
X144585419Y-72669967D01*
X144578145Y-72666819D01*
X144570322Y-72665580D01*
X144570312Y-72665577D01*
X144534476Y-72659901D01*
X144522856Y-72657495D01*
X144487711Y-72648472D01*
X144487710Y-72648472D01*
X144480030Y-72646500D01*
X144459776Y-72646500D01*
X144440065Y-72644949D01*
X144427886Y-72643020D01*
X144420057Y-72641780D01*
X144390786Y-72644547D01*
X144376039Y-72645941D01*
X144364181Y-72646500D01*
X128053215Y-72646500D01*
X128042032Y-72645973D01*
X128034539Y-72644298D01*
X128026613Y-72644547D01*
X128026612Y-72644547D01*
X127966449Y-72646438D01*
X127962491Y-72646500D01*
X127934592Y-72646500D01*
X127930602Y-72647004D01*
X127918768Y-72647936D01*
X127874559Y-72649326D01*
X127866945Y-72651538D01*
X127866940Y-72651539D01*
X127855107Y-72654977D01*
X127835744Y-72658988D01*
X127815651Y-72661526D01*
X127808284Y-72664443D01*
X127808279Y-72664444D01*
X127774540Y-72677802D01*
X127763313Y-72681646D01*
X127720855Y-72693982D01*
X127714029Y-72698019D01*
X127703420Y-72704293D01*
X127685672Y-72712988D01*
X127666831Y-72720448D01*
X127660415Y-72725110D01*
X127660414Y-72725110D01*
X127631061Y-72746436D01*
X127621141Y-72752952D01*
X127589913Y-72771420D01*
X127589910Y-72771422D01*
X127583086Y-72775458D01*
X127568765Y-72789779D01*
X127553732Y-72802619D01*
X127537341Y-72814528D01*
X127528665Y-72825016D01*
X127509150Y-72848605D01*
X127501160Y-72857384D01*
X127298949Y-73059595D01*
X127236637Y-73093621D01*
X127209854Y-73096500D01*
X126549048Y-73096500D01*
X126545802Y-73096837D01*
X126545798Y-73096837D01*
X126450140Y-73106762D01*
X126450136Y-73106763D01*
X126443282Y-73107474D01*
X126436746Y-73109655D01*
X126436744Y-73109655D01*
X126311683Y-73151379D01*
X126275502Y-73163450D01*
X126125100Y-73256522D01*
X126000143Y-73381697D01*
X125907333Y-73532262D01*
X125851651Y-73700139D01*
X125840948Y-73804600D01*
X125840948Y-74805400D01*
X122528500Y-74805400D01*
X122528500Y-66774500D01*
X122548502Y-66706379D01*
X122602158Y-66659886D01*
X122654500Y-66648500D01*
X174525500Y-66648500D01*
X174593621Y-66668502D01*
G37*
%TD.AperFunction*%
M02*
